<svg width="30" height="31" viewBox="0 0 30 31" fill="none" xmlns="http://www.w3.org/2000/svg">
<g id="vuesax/linear/gallery-export">
<g id="gallery-export">
<path id="Vector" d="M11.25 13C12.6307 13 13.75 11.8807 13.75 10.5C13.75 9.11929 12.6307 8 11.25 8C9.86929 8 8.75 9.11929 8.75 10.5C8.75 11.8807 9.86929 13 11.25 13Z" stroke="#FF4400" stroke-width="1.25" stroke-linecap="round" stroke-linejoin="round"/>
<path id="Vector_2" d="M16.25 3H11.25C5 3 2.5 5.5 2.5 11.75V19.25C2.5 25.5 5 28 11.25 28H18.75C25 28 27.5 25.5 27.5 19.25V13" stroke="#FF4400" stroke-width="1.25" stroke-linecap="round" stroke-linejoin="round"/>
<path id="Vector_3" d="M22.5 10.5V3L25 5.5" stroke="#FF4400" stroke-width="1.25" stroke-linecap="round" stroke-linejoin="round"/>
<path id="Vector_4" d="M22.5 3L20 5.5" stroke="#FF4400" stroke-width="1.25" stroke-linecap="round" stroke-linejoin="round"/>
<path id="Vector_5" d="M3.3374 24.1875L9.4999 20.05C10.4874 19.3875 11.9124 19.4625 12.7999 20.225L13.2124 20.5875C14.1874 21.425 15.7624 21.425 16.7374 20.5875L21.9374 16.125C22.9124 15.2875 24.4874 15.2875 25.4624 16.125L27.4999 17.875" stroke="#FF4400" stroke-width="1.25" stroke-linecap="round" stroke-linejoin="round"/>
</g>
</g>
</svg>
